<svg xmlns="http://www.w3.org/2000/svg" viewBox="0 0 2200.000000 643.000000" aria-label="Footie Fit">
<g transform="translate(0,643) scale(0.1,-0.1)" stroke="none">
<g fill="#ffffff">
<path d="M842 3438 l3 -1993 22 -76 c96 -338 320 -567 655 -671 l73 -23 2977
-3 2978 -2 0 170 0 170 -2939 0 -2940 0 -79 25 c-180 57 -309 186 -386 385
l-21 55 -3 1978 -2 1977 -170 0 -170 0 2 -1992z"/>
<path d="M2277 5419 c-89 -21 -169 -87 -206 -169 -20 -45 -21 -58 -21 -1669 0
-1178 3 -1634 11 -1661 18 -59 78 -130 139 -164 l55 -31 1445 -3 c1650 -3
1503 -11 1602 88 96 97 89 -65 86 1786 l-3 1619 -23 42 c-35 66 -79 110 -140
140 l-57 28 -1425 2 c-811 0 -1441 -3 -1463 -8z m2284 -413 c126 -27 197 -84
240 -192 20 -51 23 -76 23 -189 0 -113 -3 -138 -23 -189 -30 -75 -87 -137
-154 -167 -52 -24 -52 -24 -567 -29 -468 -5 -518 -7 -547 -23 -52 -28 -67 -68
-67 -177 0 -109 15 -149 67 -177 29 -16 75 -19 437 -24 448 -6 452 -7 525 -71
65 -57 88 -125 89 -258 1 -138 -19 -206 -78 -264 -78 -78 -85 -79 -556 -86
-447 -5 -444 -5 -472 -59 -9 -19 -14 -118 -18 -376 -5 -341 -6 -351 -29 -402
-58 -130 -188 -193 -399 -193 -220 0 -357 80 -408 239 -17 53 -19 124 -22
1151 -3 1137 -1 1209 38 1298 43 96 148 170 271 191 30 5 398 9 819 10 623 0
777 -2 831 -13z"/>
<path d="M6518 4219 c-147 -21 -313 -88 -432 -173 -91 -65 -224 -210 -275
-301 -96 -167 -135 -332 -134 -560 1 -232 39 -383 142 -559 58 -100 199 -247
300 -312 194 -124 428 -178 676 -154 249 23 447 113 616 280 126 125 214 277
259 450 35 132 40 407 10 550 -39 193 -116 343 -244 477 -160 169 -340 264
-566 298 -102 16 -260 18 -352 4z m333 -581 c146 -67 232 -210 245 -406 14
-209 -76 -401 -224 -476 -108 -55 -252 -57 -360 -5 -152 74 -241 260 -229 479
12 220 113 367 292 427 67 22 209 12 276 -19z"/>
<path d="M8746 4220 c-452 -71 -779 -411 -835 -865 -35 -285 21 -559 156 -762
91 -138 254 -278 406 -348 213 -98 516 -118 753 -49 326 94 585 361 670 689
52 202 43 497 -22 686 -109 322 -379 560 -719 635 -83 19 -326 27 -409 14z
m336 -583 c151 -68 241 -232 241 -442 0 -173 -42 -285 -145 -380 -79 -74 -146
-99 -263 -99 -114 0 -183 25 -258 94 -106 97 -153 230 -144 415 8 180 59 287
179 379 94 71 272 86 390 33z"/>
<path d="M12163 4210 c-83 -18 -140 -58 -176 -125 -22 -40 -22 -42 -25 -865
-2 -574 1 -839 8 -870 17 -67 51 -112 110 -144 46 -25 68 -30 151 -34 160 -8
252 29 301 120 l23 43 3 825 c2 581 0 840 -8 877 -15 69 -73 135 -138 158 -55
20 -190 28 -249 15z"/>
<path d="M10094 4174 c-45 -16 -97 -62 -119 -105 -24 -46 -37 -157 -26 -230
14 -103 46 -155 116 -192 35 -19 63 -22 232 -27 183 -5 194 -6 215 -28 l23
-23 5 -607 c5 -588 6 -608 26 -652 44 -95 133 -140 279 -140 146 0 235 45 279
140 20 44 21 64 26 652 l5 607 23 23 c21 22 31 23 215 28 187 5 193 6 239 33
62 36 96 93 107 183 16 129 -9 232 -69 291 -66 64 -50 63 -829 62 -590 0 -713
-3 -747 -15z"/>
<path d="M13012 4171 c-65 -23 -116 -70 -139 -130 -17 -43 -18 -106 -18 -846
0 -859 -1 -842 51 -912 13 -17 50 -44 81 -60 l58 -28 615 0 615 0 42 23 c80
42 121 144 110 268 -10 106 -40 159 -112 198 -38 20 -56 21 -420 26 -274 4
-386 8 -401 17 -59 34 -56 182 4 221 23 15 63 18 322 22 l297 5 42 28 c58 38
80 91 81 185 0 110 -28 164 -105 205 -37 20 -59 22 -336 27 -328 6 -321 4
-340 73 -24 90 10 160 88 178 21 5 189 9 373 9 303 0 339 2 375 19 88 39 120
112 113 256 -5 118 -32 170 -110 209 l-52 26 -590 0 c-547 -1 -595 -2 -644
-19z"/>
</g>
<g fill="#3d8a5a">
<path d="M14510 5245 l0 -165 2943 -2 c2830 -3 2944 -4 2997 -21 194 -65 332
-197 398 -378 l27 -74 3 -1972 2 -1973 170 0 170 0 0 1958 c-1 1591 -3 1971
-14 2032 -62 344 -314 626 -656 732 l-75 23 -2982 3 -2983 2 0 -165z"/>
<path d="M17592 4206 c-74 -19 -130 -61 -161 -121 l-26 -50 0 -835 c0 -782 1
-838 18 -882 38 -98 133 -148 282 -148 103 0 175 21 225 66 74 67 71 18 68
970 l-3 851 -30 49 c-45 72 -112 104 -230 109 -57 3 -110 0 -143 -9z"/>
<path d="M15814 4181 c-87 -21 -154 -87 -173 -171 -14 -61 -14 -1599 0 -1660
14 -64 52 -113 111 -145 45 -25 66 -29 153 -33 121 -5 197 13 250 60 68 59 69
65 75 351 l5 259 28 24 28 24 273 0 c211 0 284 3 322 15 50 14 90 48 114 94
18 35 25 178 10 231 -15 56 -72 114 -125 129 -25 7 -142 11 -302 11 -144 0
-273 4 -287 10 -52 19 -78 107 -57 188 21 76 23 76 441 82 394 5 395 6 446 62
49 53 59 87 59 203 0 95 -3 116 -23 157 -13 27 -37 57 -52 68 -70 50 -73 50
-689 49 -317 -1 -590 -4 -607 -8z"/>
<path d="M18376 4175 c-51 -18 -85 -44 -114 -85 -34 -50 -44 -106 -40 -210 3
-84 7 -102 34 -150 24 -42 43 -61 80 -80 45 -23 61 -25 236 -30 l188 -5 27
-28 28 -27 5 -613 5 -612 23 -43 c48 -90 142 -128 303 -120 80 3 102 8 147 33
30 16 63 42 74 58 47 65 48 85 48 699 0 632 -1 624 57 646 15 6 107 13 203 14
157 3 179 6 216 25 90 48 119 111 119 263 0 98 -2 109 -30 160 -32 58 -75 94
-134 110 -23 6 -297 10 -736 10 -575 -1 -707 -3 -739 -15z"/>
<path d="M19745 1853 c-94 -22 -146 -62 -181 -138 -27 -56 -31 -133 -12 -196
13 -46 68 -113 109 -134 122 -63 284 -23 339 85 l20 40 -56 0 c-48 0 -59 -4
-85 -29 -64 -65 -177 -42 -218 43 -48 99 -4 211 93 237 31 8 48 7 83 -6 24 -9
48 -25 53 -36 9 -15 22 -19 71 -19 l59 0 -20 39 c-21 41 -67 83 -110 99 -32
12 -119 22 -145 15z"/>
<path d="M18860 1605 l0 -245 130 0 130 0 0 40 0 40 -80 0 -80 0 0 205 0 205
-50 0 -50 0 0 -245z"/>
<path d="M19210 1605 l0 -245 130 0 130 0 0 40 0 40 -80 0 -80 0 0 205 0 205
-50 0 -50 0 0 -245z"/>
</g>
</g>
</svg>